# xmcd
#
# Track frame offsets:
#  150
#  17545
#  36130
#  55775
#  73085
#  87802
#  103935
#  119518
#  139930
#  159140
#  174985
#  191575
#  210458
#  230483
#
# Disc length: 3341 seconds
#
# Revision: 0
# Processed by: cddbd v1.4PL0 Copyright (c) Steve Scherf et al.
# Submitted via: AltoMP3_Maker 3.0
#
DISCID=b70d0b0e
DTITLE=Cleiton and Camargo - Amor No Coração
DYEAR=1900
DGENRE=
TTITLE0=Amor No Carro
TTITLE1=Acabou
TTITLE2=Olha Pra Mim
TTITLE3=Não Desisti
TTITLE4=Essa Tal Solidão
TTITLE5=Endereço Certo
TTITLE6=Como Eu Amo Você
TTITLE7=Nunca Mais
TTITLE8=Inocência
TTITLE9=Tropicana
TTITLE10=Cabe Alguém No Coração
TTITLE11=Quando O Medo É Maior Que A Paixão
TTITLE12=Felicidade Quer Cumplicidade
TTITLE13=Quando Anoitece
EXTD=
EXTT0=
EXTT1=
EXTT2=
EXTT3=
EXTT4=
EXTT5=
EXTT6=
EXTT7=
EXTT8=
EXTT9=
EXTT10=
EXTT11=
EXTT12=
EXTT13=
PLAYORDER=
